<?xml version="1.0"?>
<svg xmlns="http://www.w3.org/2000/svg" xmlns:xlink="http://www.w3.org/1999/xlink" xmlns:svgjs="http://svgjs.com/svgjs" version="1.1" width="512" height="512" x="0" y="0" viewBox="0 0 64 64" style="enable-background:new 0 0 512 512" xml:space="preserve" class=""><g><path xmlns="http://www.w3.org/2000/svg" d="m59.94 26.96c1.272-1.268 2.06-3.022 2.06-4.96 0-3.866-3.134-7-7-7-.36 0-.71.036-1.055.088.032-.359.055-.721.055-1.088 0-6.627-5.373-12-12-12-4.176 0-7.851 2.136-10 5.372-2.149-3.236-5.824-5.372-10-5.372-6.627 0-12 5.373-12 12 0 .367.023.729.055 1.088-.345-.052-.695-.088-1.055-.088-3.866 0-7 3.134-7 7s3.134 7 7 7c3.108 0 5.739-2.027 6.653-4.829 1.842 1.152 4.013 1.829 6.347 1.829.49 0 .971-.035 1.445-.092.212.262.435.514.67.756" fill="#74b0ef" data-original="#a1cdfb" style="" class=""/><path xmlns="http://www.w3.org/2000/svg" d="m57 26c-.359 0-.707.041-1.045.113-.445-4.554-4.284-8.113-8.955-8.113s-8.51 3.559-8.955 8.113c-.338-.072-.686-.113-1.045-.113-2.761 0-5 2.239-5 5s2.239 5 5 5c1.717 0 3.231-.867 4.131-2.186 1.576 1.359 3.624 2.186 5.869 2.186s4.293-.827 5.869-2.186c.9 1.319 2.414 2.186 4.131 2.186 2.761 0 5-2.239 5-5s-2.239-5-5-5z" fill="#aadbf7" data-original="#ebf7fe" style="" class=""/><path xmlns="http://www.w3.org/2000/svg" d="m42 30c-.359 0-.707.041-1.045.113-.445-4.554-4.284-8.113-8.955-8.113s-8.51 3.559-8.955 8.113c-.338-.072-.686-.113-1.045-.113-2.761 0-5 2.239-5 5s2.239 5 5 5c1.717 0 3.231-.867 4.131-2.186 1.576 1.359 3.624 2.186 5.869 2.186s4.293-.827 5.869-2.186c.9 1.319 2.414 2.186 4.131 2.186 2.761 0 5-2.239 5-5s-2.239-5-5-5z" fill="#93c2ef" data-original="#c7e2fc" style="" class=""/><g xmlns="http://www.w3.org/2000/svg" fill="#a1cdfb"><circle cx="7" cy="57" r="5" fill="#74b0ef" data-original="#a1cdfb" style="" class=""/><circle cx="28" cy="57" r="5" fill="#74b0ef" data-original="#a1cdfb" style="" class=""/><circle cx="48" cy="57" r="5" fill="#74b0ef" data-original="#a1cdfb" style="" class=""/><circle cx="18" cy="48" r="3" fill="#74b0ef" data-original="#a1cdfb" style="" class=""/><circle cx="38" cy="48" r="3" fill="#74b0ef" data-original="#a1cdfb" style="" class=""/></g></g></svg>
