<svg id="Layer_2" enable-background="new 0 0 64 64" height="512" viewBox="0 0 64 64" width="512" xmlns="http://www.w3.org/2000/svg"><path d="m50.383 37.804c.382-.503.617-1.124.617-1.804 0-1.657-1.343-3-3-3-1.012 0-1.902.504-2.445 1.271-.492-.162-1.009-.271-1.555-.271-2.422 0-4.441 1.723-4.9 4.01-.034-.001-.066-.01-.1-.01-2.209 0-4 1.791-4 4s1.791 4 4 4c1.051 0 2.001-.414 2.715-1.078.55.654 1.364 1.078 2.285 1.078 1.027 0 1.932-.518 2.473-1.305.471.195.986.305 1.527.305 2.209 0 4-1.791 4-4 0-1.312-.641-2.467-1.617-3.196z" fill="#edeff1"/><path d="m15.2 31h2.8l-8-20-8 20h2.8l-2.8 7h2.8l-2.8 7h8 8l-2.8-7h2.8z" fill="#98ca69"/><path d="m9 26.333v4.667l-2.4-1.8-1.2 1.6 3.6 2.7v18.5h2v-25.667z" fill="#75aa40"/><path d="m59.2 31h2.8l-8-20-8 20h2.8l-2.8 7h2.8l-2.8 7h8 8l-2.8-7h2.8z" fill="#98ca69"/><path d="m58.6 33.8-1.2-1.6-2.4 1.8v-7.667h-2v4.667l-2.4-1.8-1.2 1.6 3.6 2.7v18.5h2v-15.5z" fill="#75aa40"/><g fill="#edeff1"><path d="m17.383 35.804c.382-.503.617-1.124.617-1.804 0-1.657-1.343-3-3-3-1.012 0-1.902.504-2.445 1.271-.492-.162-1.009-.271-1.555-.271-2.422 0-4.441 1.723-4.9 4.01-.034-.001-.066-.01-.1-.01-2.209 0-4 1.791-4 4s1.791 4 4 4c1.051 0 2.001-.414 2.715-1.078.55.654 1.364 1.078 2.285 1.078 1.027 0 1.932-.518 2.473-1.305.471.195.986.305 1.527.305 2.209 0 4-1.791 4-4 0-1.312-.641-2.467-1.617-3.196z"/><path d="m30 15c-.238 0-.463.049-.675.125-.55-.681-1.382-1.125-2.325-1.125-.061 0-.118.014-.178.018-.408-1.172-1.511-2.018-2.822-2.018-1.012 0-1.902.504-2.445 1.271-.492-.162-1.009-.271-1.555-.271-2.422 0-4.441 1.723-4.9 4.01-.034-.001-.066-.01-.1-.01-2.209 0-4 1.791-4 4s1.791 4 4 4c1.051 0 2.001-.414 2.715-1.078.55.654 1.364 1.078 2.285 1.078 1.027 0 1.932-.518 2.473-1.305.471.195.986.305 1.527.305 2.209 0 4-1.791 4-4 0-.061-.015-.118-.018-.178.534-.186.994-.516 1.343-.947.212.076.437.125.675.125 1.105 0 2-.895 2-2s-.895-2-2-2z"/><path d="m49 9c-.238 0-.463.049-.675.125-.502-.621-1.24-1.032-2.083-1.101-.55-.623-1.346-1.024-2.242-1.024-1.311 0-2.414.846-2.822 2.018-.06-.004-.117-.018-.178-.018-1.657 0-3 1.343-3 3s1.343 3 3 3c.621 0 1.197-.189 1.676-.512.353.315.814.512 1.324.512.749 0 1.394-.417 1.737-1.027.088.008.173.027.263.027.943 0 1.775-.444 2.325-1.125.212.076.437.125.675.125 1.105 0 2-.895 2-2s-.895-2-2-2z"/></g><path d="m37.2 31h2.8l-8-20-8 20h2.8l-2.8 7h2.8l-2.8 7h8 8l-2.8-7h2.8z" fill="#98ca69"/><path d="m36.6 33.8-1.2-1.6-2.4 1.8v-7.667h-2v4.667l-2.4-1.8-1.2 1.6 3.6 2.7v18.5h2v-15.5z" fill="#75aa40"/><path d="m44 25c0-1.105-.895-2-2-2-.238 0-.463.049-.675.125-.55-.681-1.382-1.125-2.325-1.125-1.657 0-3 1.343-3 3 0 .065.015.126.019.19-.246-.089-.506-.143-.778-.165-.549-.624-1.345-1.025-2.241-1.025-1.311 0-2.414.846-2.822 2.018-.06-.004-.117-.018-.178-.018-1.657 0-3 1.343-3 3s1.343 3 3 3c.621 0 1.197-.189 1.676-.512.353.315.814.512 1.324.512.749 0 1.394-.417 1.737-1.027.088.008.173.027.263.027.904 0 1.705-.408 2.255-1.041.341.618.99 1.041 1.745 1.041 1.105 0 2-.895 2-2 1.105 0 2-.895 2-2 0-.09-.015-.176-.027-.263.61-.343 1.027-.988 1.027-1.737z" fill="#edeff1"/><path d="m62 19c0-1.105-.895-2-2-2-.238 0-.463.049-.675.125-.55-.681-1.382-1.125-2.325-1.125-1.657 0-3 1.343-3 3 0 .36.074.7.19 1.019-.064-.006-.125-.019-.19-.019-1.105 0-2 .895-2 2 0 .09.015.176.027.263-.32.18-.583.443-.764.764-.087-.012-.173-.027-.263-.027-1.105 0-2 .895-2 2s.895 2 2 2c.749 0 1.394-.417 1.737-1.027.087.012.173.027.263.027.366 0 .705-.106 1-.277.295.171.634.277 1 .277.749 0 1.394-.417 1.737-1.027.087.012.173.027.263.027 1.105 0 2-.895 2-2 1.105 0 2-.895 2-2 0-.09-.015-.176-.027-.263.61-.343 1.027-.988 1.027-1.737z" fill="#edeff1"/><path d="m57.843 52.085c-.389-1.206-1.507-2.085-2.843-2.085-.3 0-.585.057-.858.14-.861-.702-1.945-1.14-3.142-1.14-.856 0-1.65.235-2.354.614-.502-.955-1.492-1.614-2.646-1.614-1.012 0-1.902.504-2.445 1.271-.492-.162-1.009-.271-1.555-.271-1.137 0-2.177.39-3.017 1.03-.835-.632-1.855-1.03-2.983-1.03-.856 0-1.65.235-2.354.614-.502-.955-1.492-1.614-2.646-1.614-1.012 0-1.902.504-2.445 1.271-.492-.162-1.009-.271-1.555-.271-1.12 0-2.144.38-2.977 1.002-.008 0-.015-.002-.023-.002-.3 0-.585.057-.858.14-.861-.702-1.945-1.14-3.142-1.14-.856 0-1.65.235-2.354.614-.502-.955-1.492-1.614-2.646-1.614-1.012 0-1.902.504-2.445 1.271-.492-.162-1.009-.271-1.555-.271-2.422 0-4.441 1.723-4.9 4.01-.034-.001-.066-.01-.1-.01-2.209 0-4 1.791-4 4h60c0-2.473-1.799-4.513-4.157-4.915z" fill="#98ca69"/></svg>